{"title":"From Dusk Till Dawn The Series S01E04 HDTV x264 AAC [GWC].mp4","uid":9874219,"size":170577703,"categoryP":"video","categoryS":"tv_shows","magnet":"?xt=urn:btih:3dda9132e5a88b24e2a18708aaed89233f70da50&amp;dn=From+Dusk+Till+Dawn+The+Series+S01E04+HDTV+x264+AAC+%5BGWC%5D.mp4&amp;tr=udp%3A%2F%2Ftracker.openbittorrent.com%3A80&amp;tr=udp%3A%2F%2Fopen.demonii.com%3A1337&amp;tr=udp%3A%2F%2Ftracker.coppersurfer.tk%3A6969&amp;tr=udp%3A%2F%2Fexodus.desync.com%3A6969","seeders":1,"leechers":0,"uploader":"canc232","files":1,"time":1396456804,"description":"From Dusk Till Dawn S01E04 HDTV x264 AAC [GWC]\n\n\nSTORYLINE :\nA Texas Ranger is in hot pursuit of the infamous Gecko brothers.\n\n\nSCREENS : &lt;a href=&quot;\nhttp://i.imgur.com/Kd2kA3B.jpg&quot; rel=&quot;nofollow&quot; target=&quot;_NEW&quot;&gt;\nhttp://i.imgur.com/Kd2kA3B.jpg&lt;/a&gt; &lt;a href=&quot;\nhttp://i.imgur.com/ejE9qj8.jpg&quot; rel=&quot;nofollow&quot; target=&quot;_NEW&quot;&gt;\nhttp://i.imgur.com/ejE9qj8.jpg&lt;/a&gt; &lt;a href=&quot;\nhttp://i.imgur.com/UDTh6jN.jpg&quot; rel=&quot;nofollow&quot; target=&quot;_NEW&quot;&gt;\nhttp://i.imgur.com/UDTh6jN.jpg&lt;/a&gt;\n\n\nMEDIA INFO :\nGeneral \nFormat : MPEG-4 \nFormat profile : Base Media \nFile size : 163 MiB \nDuration : 49mn 20s \nOverall bit rate mode : Variable \nOverall bit rate : 461 Kbps \n\nVideo \nFormat : AVC \nFormat profile : &lt;a class=&quot;__cf_email__&quot; href=&quot;/cdn-cgi/l/email-protection&quot; data-cfemail=&quot;074f6e606f474b342937&quot;&gt;[email&amp;#160;protected]&lt;/a&gt;&lt;script cf-hash='f9e31' type=&quot;text/javascript&quot;&gt;\n/* &lt;![CDATA[ */!function(){try{var t=&quot;currentScript&quot;in document?document.currentScript:function(){for(var t=document.getElementsByTagName(&quot;script&quot;),e=t.length;e--;)if(t[e].getAttribute(&quot;cf-hash&quot;))return t[e]}();if(t&amp;&amp;t.previousSibling){var e,r,n,i,c=t.previousSibling,a=c.getAttribute(&quot;data-cfemail&quot;);if(a){for(e=&quot;&quot;,r=parseInt(a.substr(0,2),16),n=2;a.length-n;n+=2)i=parseInt(a.substr(n,2),16)^r,e+=String.fromCharCode(i);e=document.createTextNode(e),c.parentNode.replaceChild(e,c)}}}catch(u){}}();/* ]]&gt; */&lt;/script&gt; \nFormat settings, CABAC : Yes \nFormat settings, ReFrames : 4 frames \nDuration : 49mn 19s \nBit rate : 398 Kbps \nMaximum bit rate : 4 377 Kbps \nWidth : 720 pixels \nHeight : 404 pixels \nDisplay aspect ratio : 16:9 \nFrame rate : 23.976 fps \nStream size : 140 MiB (86%) \nTitle : From Dusk Till Dawn S01E04 HDTV x264 AAC [GWC] \nWriting library : x264 core\n\nAudio \nFormat : AAC \nFormat profile : HE-AAC / LC \nDuration : 49mn 20s \nBit rate mode : Variable \nChannel(s) : 2 channels \nSampling rate : 48.0 KHz / 24.0 KHz \nStream size : 21.2 MiB (13%) \nLanguage : English ","torrent":{"xt":"urn:btih:3dda9132e5a88b24e2a18708aaed89233f70da50","amp;dn":"From+Dusk+Till+Dawn+The+Series+S01E04+HDTV+x264+AAC+%5BGWC%5D.mp4","amp;tr":["udp%3A%2F%2Ftracker.openbittorrent.com%3A80","udp%3A%2F%2Fopen.demonii.com%3A1337","udp%3A%2F%2Ftracker.coppersurfer.tk%3A6969","udp%3A%2F%2Fexodus.desync.com%3A6969"],"infoHash":"3dda9132e5a88b24e2a18708aaed89233f70da50","infoHashBuffer":{"type":"Buffer","data":[61,218,145,50,229,168,139,36,226,161,135,8,170,237,137,35,63,112,218,80]},"announce":[],"urlList":[]}}